#!OML:ASF E:\Style4\Style4.ASF
:FULLY-SPECIFIED
:DEGREES
1413
root -0.0623403 17.3253 -1.15505 3.74398 -3.37812 3.1753
lowerback 6.12765 1.36564 -2.4292
upperback 0.307092 1.59281 -1.71637
thorax -3.13645 0.814785 -0.54613
lowerneck 2.64343 -3.28465 -7.26395
upperneck 5.99773 -4.67656 4.59144
head 1.76046 -2.4232 2.70473
rclavicle -3.75703e-014 7.95139e-015
rhumerus -86.8284 56.5424 -124.008
rradius 85.1152
rwrist 1.07462
rhand -11.5778 35.6565
rfingers 7.12502
rthumb 14.4639 6.18053
lclavicle -3.75703e-014 7.95139e-015
lhumerus -34.3801 13.6093 33.6747
lradius 118.446
lwrist -15.3122
lhand -12.7511 34.4382
lfingers 7.12502
lthumb 13.3331 63.9916
rfemur -20.4178 1.34505 14.6561
rtibia 43.6212
rfoot -25.2791 -13.6593
rtoes -13.6604
lfemur -17.1856 2.01437 -22.497
ltibia 40.0448
lfoot -25.3002 7.31616
ltoes -16.6871
1414
root -0.0651561 17.3199 -1.15506 3.79004 -3.27254 3.19143
lowerback 6.13921 1.39232 -2.42143
upperback 0.280556 1.62765 -1.71949
thorax -3.17038 0.832317 -0.557605
lowerneck 2.71194 -3.3106 -7.28158
upperneck 5.88695 -4.71718 4.6648
head 1.71781 -2.4426 2.73373
rclavicle 3.88873e-014 9.74045e-015
rhumerus -86.9035 56.4978 -124.064
rradius 85.1396
rwrist 1.05192
rhand -11.2089 35.6609
rfingers 7.12502
rthumb 14.8192 6.21075
lclavicle 3.88873e-014 9.74045e-015
lhumerus -34.3064 13.5657 33.5359
lradius 118.422
lwrist -15.4194
lhand -12.7609 34.4775
lfingers 7.12502
lthumb 13.3236 64.0315
rfemur -20.5258 1.22443 14.6425
rtibia 43.7736
rfoot -25.3707 -13.6119
rtoes -13.5411
lfemur -17.3552 1.96344 -22.4937
ltibia 40.2417
lfoot -25.386 7.2178
ltoes -16.4279
1415
root -0.0692146 17.317 -1.15496 3.83082 -3.18836 3.13334
lowerback 6.16007 1.42828 -2.35929
upperback 0.256424 1.67932 -1.69473
thorax -3.20641 0.857601 -0.572495
lowerneck 2.75709 -3.34933 -7.28046
upperneck 5.79778 -4.77315 4.73283
head 1.68667 -2.46932 2.75685
rclavicle 1.04362e-015 2.70347e-014
rhumerus -86.9734 56.4744 -124.144
rradius 85.098
rwrist 1.01385
rhand -10.9828 35.6708
rfingers 7.12502
rthumb 15.0371 6.23688
lclavicle 1.04362e-015 2.70347e-014
lhumerus -34.2234 13.5417 33.3534
lradius 118.405
lwrist -15.5621
lhand -12.6199 34.3453
lfingers 7.12502
lthumb 13.4595 63.8904
rfemur -20.5983 1.1316 14.7203
rtibia 43.8558
rfoot -25.3959 -13.6047
rtoes -13.5832
lfemur -17.4825 1.96309 -22.3989
ltibia 40.3589
lfoot -25.4174 7.12507
ltoes -16.2331
1416
root -0.0730336 17.3154 -1.15241 3.87015 -3.07015 3.10521
lowerback 6.18311 1.45273 -2.30276
upperback 0.206156 1.7138 -1.69302
thorax -3.26996 0.874502 -0.607098
lowerneck 2.82701 -3.38668 -7.19794
upperneck 5.74124 -4.82604 4.74839
head 1.65719 -2.49405 2.74736
rclavicle 1.90212e-014 2.47487e-014
rhumerus -87.0303 56.3731 -124.194
rradius 85.0727
rwrist 1.06903
rhand -10.7825 35.7408
rfingers 7.12502
rthumb 15.23 6.32145
lclavicle 1.90212e-014 2.47487e-014
lhumerus -34.1598 13.4565 33.1522
lradius 118.406
lwrist -15.6111
lhand -12.5754 34.3454
lfingers 7.12502
lthumb 13.5025 63.8877
rfemur -20.6042 1.01191 14.7728
rtibia 43.8602
rfoot -25.3624 -13.6688
rtoes -13.6696
lfemur -17.5516 1.91782 -22.3461
ltibia 40.3961
lfoot -25.4002 7.12349
ltoes -16.4663
1417
root -0.0758189 17.3179 -1.14801 3.90618 -2.92463 3.09783
lowerback 6.13074 1.46439 -2.25734
upperback 0.190571 1.73465 -1.67765
thorax -3.25595 0.884343 -0.617325
lowerneck 2.90418 -3.40295 -7.2165
upperneck 5.64892 -4.85321 4.79606
head 1.61749 -2.50751 2.76829
rclavicle 1.05729e-014 -2.28602e-015
rhumerus -87.0605 56.3546 -124.184
rradius 85.0931
rwrist 0.976532
rhand -10.3732 35.7566
rfingers 7.12502
rthumb 15.6243 6.36759
lclavicle 1.05729e-014 -2.28602e-015
lhumerus -34.074 13.3547 33.0175
lradius 118.427
lwrist -15.4462
lhand -12.7301 34.5751
lfingers 7.12502
lthumb 13.3533 64.1272
rfemur -20.546 0.871135 14.7966
rtibia 43.78
rfoot -25.3211 -13.7057
rtoes -13.814
lfemur -17.5643 1.80956 -22.3179
ltibia 40.3618
lfoot -25.3889 7.04149
ltoes -16.4137
1418
root -0.0800883 17.3251 -1.14435 3.92448 -2.77714 3.09962
lowerback 6.06618 1.47627 -2.24573
upperback 0.215459 1.75532 -1.64665
thorax -3.19476 0.894305 -0.59132
lowerneck 2.89611 -3.41169 -7.30144
upperneck 5.54299 -4.86762 4.89657
head 1.59154 -2.51429 2.8184
rclavicle 1.40889e-014 -1.91827e-014
rhumerus -87.1023 56.4584 -124.214
rradius 85.0897
rwrist 0.744119
rhand -10.194 35.6432
rfingers 7.12502
rthumb 15.7968 6.26777
lclavicle 1.40889e-014 -1.91827e-014
lhumerus -33.919 13.3513 32.9338
lradius 118.387
lwrist -15.3393
lhand -12.8833 34.4807
lfingers 7.12502
lthumb 13.2057 64.0424
rfemur -20.4314 0.781591 14.81
rtibia 43.6298
rfoot -25.347 -13.6212
rtoes -13.361
lfemur -17.5364 1.72222 -22.2937
ltibia 40.2444
lfoot -25.2437 7.03712
ltoes -16.6474
1419
root -0.0855712 17.337 -1.139 3.94904 -2.60946 3.08339
lowerback 6.10186 1.47858 -2.19907
upperback 0.162232 1.75959 -1.63223
thorax -3.26885 0.89643 -0.605045
lowerneck 2.88708 -3.43655 -7.32827
upperneck 5.50112 -4.9026 4.96345
head 1.58503 -2.53109 2.84573
rclavicle -1.56667e-014 -7.55382e-015
rhumerus -87.2608 56.4821 -124.389
rradius 85.0319
rwrist 0.619597
rhand -10.383 35.5909
rfingers 7.12502
rthumb 15.6148 6.20117
lclavicle -1.56667e-014 -7.55382e-015
lhumerus -33.7741 13.2775 32.7512
lradius 118.298
lwrist -15.4118
lhand -12.8169 34.4801
lfingers 7.12502
lthumb 13.2697 64.0377
rfemur -20.2726 0.739266 14.8629
rtibia 43.4076
rfoot -25.3203 -13.7061
rtoes -13.262
lfemur -17.4722 1.6146 -22.2425
ltibia 40.0374
lfoot -25.0692 7.07607
ltoes -17.0224
1420
root -0.0902069 17.3482 -1.13178 3.96156 -2.47148 3.0834
lowerback 6.17458 1.48904 -2.11233
upperback 0.0791989 1.77378 -1.67213
thorax -3.39169 0.902708 -0.699838
lowerneck 2.9085 -3.45775 -7.20521
upperneck 5.45566 -4.92817 4.93487
head 1.56313 -2.5416 2.8132
rclavicle -1.12065e-014 -1.15295e-014
rhumerus -87.4129 56.3702 -124.581
rradius 84.9948
rwrist 0.534544
rhand -10.4894 35.5804
rfingers 7.12502
rthumb 15.5124 6.18271
lclavicle -1.12065e-014 -1.15295e-014
lhumerus -33.6171 13.1322 32.4922
lradius 118.245
lwrist -15.4038
lhand -12.6621 34.57
lfingers 7.12502
lthumb 13.4189 64.1178
rfemur -20.0742 0.681227 14.8863
rtibia 43.1162
rfoot -25.1732 -13.8217
rtoes -13.334
lfemur -17.2822 1.46945 -22.2199
ltibia 39.7236
lfoot -24.9906 7.11055
ltoes -17.187
1421
root -0.0939823 17.3626 -1.1243 4.01385 -2.36593 3.05107
lowerback 6.09927 1.4981 -2.07263
upperback 0.0411028 1.79163 -1.63627
thorax -3.3888 0.911405 -0.685221
lowerneck 2.86408 -3.45712 -7.10747
upperneck 5.44046 -4.91938 4.86153
head 1.55971 -2.53542 2.76941
rclavicle 1.0461e-014 1.58034e-014
rhumerus -87.5576 56.4316 -124.706
rradius 84.9713
rwrist 0.390178
rhand -10.3924 35.556
rfingers 7.12502
rthumb 15.6058 6.16554
lclavicle 1.0461e-014 1.58034e-014
lhumerus -33.4883 13.1433 32.332
lradius 118.163
lwrist -15.3578
lhand -12.7252 34.5937
lfingers 7.12502
lthumb 13.358 64.1455
rfemur -19.8718 0.626067 14.9382
rtibia 42.7259
rfoot -25.0357 -13.8311
rtoes -13.403
lfemur -17.0811 1.33167 -22.1704
ltibia 39.3107
lfoot -24.8668 7.08876
ltoes -16.9084
1422
root -0.0968709 17.3849 -1.11304 4.06646 -2.22937 3.06864
lowerback 5.84621 1.49682 -2.19363
upperback 0.0850542 1.79492 -1.52874
thorax -3.20854 0.914887 -0.498575
lowerneck 2.80443 -3.46619 -7.04712
upperneck 5.39838 -4.92214 4.77813
head 1.55192 -2.53544 2.72894
rclavicle -9.95166e-015 1.00386e-014
rhumerus -87.6256 56.6315 -124.653
rradius 84.9751
rwrist 0.209474
rhand -10.2654 35.559
rfingers 7.12502
rthumb 15.7281 6.17813
lclavicle -9.95166e-015 1.00386e-014
lhumerus -33.3767 13.3151 32.332
lradius 118.045
lwrist -15.4332
lhand -12.9154 34.684
lfingers 7.12502
lthumb 13.1748 64.2477
rfemur -19.5852 0.541879 14.9253
rtibia 42.2344
rfoot -24.9115 -13.7563
rtoes -13.2567
lfemur -16.824 1.15461 -22.1789
ltibia 38.7995
lfoot -24.6481 7.11566
ltoes -16.7708
1423
root -0.100141 17.4161 -1.09931 4.09021 -2.12113 3.06676
lowerback 5.68092 1.48988 -2.31659
upperback 0.0867458 1.78721 -1.40783
thorax -3.12164 0.91335 -0.299756
lowerneck 2.67158 -3.46632 -7.10303
upperneck 5.47697 -4.91485 4.74702
head 1.60124 -2.53234 2.72623
rclavicle -2.40405e-015 6.01324e-015
rhumerus -87.7716 56.7647 -124.672
rradius 84.9845
rwrist -0.0120751
rhand -10.0198 35.5822
rfingers 7.12502
rthumb 15.9646 6.22012
lclavicle -2.40405e-015 6.01324e-015
lhumerus -33.3639 13.4589 32.2789
lradius 117.953
lwrist -15.5595
lhand -12.8013 34.8136
lfingers 7.12502
lthumb 13.2847 64.3702
rfemur -19.2061 0.54232 14.9407
rtibia 41.6173
rfoot -24.6706 -13.8192
rtoes -13.3073
lfemur -16.5208 0.977712 -22.1615
ltibia 38.2228
lfoot -24.3819 7.2459
ltoes -17.0944
1424
root -0.103499 17.4483 -1.088 4.11817 -2.0542 3.01976
lowerback 5.62374 1.50057 -2.31766
upperback 0.0319878 1.80429 -1.34068
thorax -3.14852 0.922829 -0.230872
lowerneck 2.59746 -3.46715 -7.15377
upperneck 5.50899 -4.91416 4.78448
head 1.62769 -2.532 2.74698
rclavicle -2.88859e-015 1.85367e-014
rhumerus -87.9528 56.8401 -124.857
rradius 84.929
rwrist -0.244226
rhand -9.89469 35.5888
rfingers 7.12502
rthumb 16.0851 6.23642
lclavicle -2.88859e-015 1.85367e-014
lhumerus -33.3127 13.522 32.1193
lradius 117.887
lwrist -15.5909
lhand -12.5119 34.6931
lfingers 7.12502
lthumb 13.5636 64.2313
rfemur -18.809 0.596092 15.0046
rtibia 40.8951
rfoot -24.3749 -13.8421
rtoes -13.019
lfemur -16.1787 0.815867 -22.0954
ltibia 37.5533
lfoot -24.1299 7.34143
ltoes -17.1524
